<?xml version="1.0" encoding="utf-8"?>
<!-- Generator: Adobe Illustrator 24.1.2, SVG Export Plug-In . SVG Version: 6.00 Build 0)  -->
<svg version="1.1" id="Layer_1" xmlns="http://www.w3.org/2000/svg" xmlns:xlink="http://www.w3.org/1999/xlink" x="0px" y="0px"
	 viewBox="0 0 752 752" style="enable-background:new 0 0 752 752;" xml:space="preserve">
<style type="text/css">
	.st0{clip-path:url(#SVGID_2_);}
	.st1{fill:#FAEBD6;stroke:#FAEBD6;stroke-width:2;stroke-miterlimit:10;}
</style>
<g>
	<defs>
		<rect id="SVGID_1_" x="139.2" y="139.2" width="473.6" height="473.6"/>
	</defs>
	<clipPath id="SVGID_2_">
		<use xlink:href="#SVGID_1_"  style="overflow:visible;"/>
	</clipPath>
	<g class="st0">
		<path class="st1" d="M612.8,370.8c-2.8-126.4-105.1-228.7-231.6-231.6c-134.5-2.8-244.8,107.5-242,242
			C142,507.7,244.3,610,370.8,612.8C505.3,615.6,615.6,505.3,612.8,370.8L612.8,370.8z M377.9,221.1c49.7,0.9,90.5,41.7,91.4,91.4
			c1.4,53-42.1,96.6-95.2,95.7c-50.2-1.4-90.5-41.7-91.4-91.4C281.3,263.3,324.9,219.7,377.9,221.1L377.9,221.1z M503.9,489.2
			c-36,26.5-80,42.1-127.9,42.1s-91.9-15.6-127.9-42.1c-9.9-7.1-13.3-20.4-9-31.7c11.8-29.4,35-52.6,64.4-64.4
			c18.9,17.5,44.5,28.4,72.5,28.4s53-10.9,72.5-28.4c29.4,11.8,52.6,35,64.4,64.4C517.1,468.8,513.8,481.6,503.9,489.2L503.9,489.2z
			"/>
	</g>
	<use xlink:href="#SVGID_1_"  style="overflow:visible;fill:none;stroke:#000000;stroke-width:2;stroke-miterlimit:10;"/>
</g>
</svg>
