<?xml version="1.0" encoding="utf-8"?>
<!-- Generator: Adobe Illustrator 24.1.2, SVG Export Plug-In . SVG Version: 6.00 Build 0)  -->
<svg version="1.1" id="Layer_1" xmlns="http://www.w3.org/2000/svg" xmlns:xlink="http://www.w3.org/1999/xlink" x="0px" y="0px"
	 viewBox="0 0 700 700" style="enable-background:new 0 0 700 700;" xml:space="preserve">
<style type="text/css">
	.st0{fill:#122D3E;}
</style>
<path class="st0" d="M350.5,616.5c146.7,0,266-119.3,266-266s-119.3-266-266-266s-266,119.3-266,266S203.8,616.5,350.5,616.5z
	 M234.6,296.7c3.9-3.9,8.4-5.6,13.4-5.6c5,0,10.1,1.7,13.4,5.6l89,88.5l88.5-88.5c7.3-7.3,19.6-7.3,26.9,0c7.3,7.3,7.3,19.6,0,26.9
	L363.9,426.1c-7.3,7.3-19.6,7.3-26.9,0L234.6,323.6C227.3,316.3,227.3,304,234.6,296.7L234.6,296.7z"/>
</svg>
