<?xml version="1.0" encoding="utf-8"?>
<!-- Generator: Adobe Illustrator 24.1.2, SVG Export Plug-In . SVG Version: 6.00 Build 0)  -->
<svg version="1.1" id="Layer_1" xmlns="http://www.w3.org/2000/svg" xmlns:xlink="http://www.w3.org/1999/xlink" x="0px" y="0px"
	 viewBox="0 0 700 700" style="enable-background:new 0 0 700 700;" xml:space="preserve">
<style type="text/css">
	.st0{fill:#7D1015;}
</style>
<path class="st0" d="M293,262.5l-7.5,43.4c-0.7,4.3,0.2,8.7,2.6,12.4c2.4,3.7,6,6.3,10.2,7.4s8.7,0.6,12.6-1.4l39.2-21.2l39,20.5v0
	c3.9,2,8.3,2.5,12.6,1.4c4.2-1.1,7.9-3.8,10.2-7.4s3.3-8.1,2.6-12.4l-7.3-42.7l31.5-30.8c3.2-3,5.1-7.2,5.3-11.5
	c0.3-4.4-1.1-8.7-3.9-12.1c-2.8-3.4-6.7-5.6-11.1-6.3l-43.9-7.2l-19.3-39.6c-1.9-3.9-5.3-6.9-9.3-8.5c-4.1-1.6-8.6-1.6-12.6,0
	c-4.1,1.6-7.4,4.6-9.3,8.5L315,194.6l-43.6,6.3v0c-4.3,0.6-8.3,2.9-11.1,6.3c-2.8,3.4-4.2,7.7-3.9,12.1c0.3,4.4,2.2,8.5,5.3,11.5
	L293,262.5z M329,227.5c5.7-0.9,10.6-4.5,13.1-9.6l7.9-16.1l7.9,16.1c2.5,5.2,7.4,8.8,13.1,9.6l17.5,2.6l-12.8,12.4
	c-4.1,4-6,9.7-5.1,15.4l3,17.5l-15.8-8.4c-5.1-2.7-11.2-2.7-16.3,0l-15.8,8.2l3-17.5l0,0c1-5.7-0.9-11.5-5.1-15.6L311,229.8
	L329,227.5z M162.4,442.9L244,420l39.2,75.3c1.5,2.9,3.7,5.2,6.5,6.9c2.8,1.7,5.9,2.5,9.1,2.5c3.3-0.1,6.5-1.2,9.2-3.1
	c2.7-1.9,4.9-4.5,6.2-7.6l35-82.4l35,82.4c1.3,3.1,3.4,5.7,6.2,7.6c2.7,1.9,5.9,3,9.2,3.1c3.2,0,6.4-0.9,9.1-2.5
	c2.7-1.7,5-4.1,6.5-6.9l40.9-75.3l81.6,23.6c4.3,1.2,8.8,0.8,12.8-1.2c4-2,7-5.4,8.5-9.6c1.5-4.2,1.4-8.8-0.3-12.8l-59.7-140
	c4.4-14.3,6.6-29.3,6.6-44.3c0-55.6-29.7-106.9-77.8-134.7c-48.1-27.8-107.4-27.8-155.6,0c-48.1,27.8-77.8,79.2-77.8,134.7
	c0,15,2.3,29.9,6.6,44.3l-59.7,140c-1.7,4.1-1.8,8.7-0.3,12.8c1.5,4.2,4.6,7.6,8.5,9.6c4,2,8.5,2.4,12.8,1.2L162.4,442.9z
	 M476.2,326l2.8-3.9l32.9,76.8L452,381.5h0c-3.9-1.1-8.1-0.9-11.8,0.7c-3.7,1.6-6.8,4.4-8.7,8.1l-29.1,55.3L378,388.3
	c6.6-1.3,13.1-3,19.4-5.1l4.9-1.8c6-2.2,11.8-4.8,17.5-7.7h1.4c6.1-3.2,11.9-6.7,17.5-10.7l4.4-3.1c5.2-3.9,10.2-8.1,14.9-12.6
	l1.1-1.1h0c4.7-4.7,9.1-9.8,13.1-15.1L476.2,326z M350,115c32,0,62.6,12.8,85.2,35.4c22.6,22.6,35.3,53.2,35.4,85.2
	c0.1,13.5-2.2,26.8-6.6,39.6c-2,6-4.4,11.9-7.4,17.5c-10.1,18.9-25,34.7-43.2,46c-18.2,11.3-39,17.5-60.4,18.1h-5.4
	c-24.7-0.7-48.6-8.9-68.6-23.5c-19.9-14.6-34.9-35-42.9-58.4c-4.5-12.6-6.7-26-6.6-39.4c0.1-31.9,12.8-62.5,35.4-85.1
	C287.4,127.7,318.1,115,350,115L350,115z M221,322.2l6,8v0c8.6,11.1,18.6,21,29.7,29.4l3.5,2.6c11.5,8.2,24,14.8,37.3,19.6l3.5,1.2
	v0c6.5,2.2,13.2,3.9,19.9,5.3l-23.4,57.2l-28.9-55.1c-1.9-3.6-4.9-6.5-8.7-8.1c-3.7-1.6-7.9-1.8-11.8-0.7l-59.9,17.5L221,322.2z"/>
</svg>
