<?xml version="1.0" encoding="utf-8"?>
<!-- Generator: Adobe Illustrator 24.1.2, SVG Export Plug-In . SVG Version: 6.00 Build 0)  -->
<svg version="1.1" id="Layer_1" xmlns="http://www.w3.org/2000/svg" xmlns:xlink="http://www.w3.org/1999/xlink" x="0px" y="0px"
	 viewBox="0 0 700 700" style="enable-background:new 0 0 700 700;" xml:space="preserve">
<style type="text/css">
	.st0{fill:#FAEBD6;}
</style>
<path class="st0" d="M577.3,448.7l-87.4-87.4c-12.4-12.4-31-15.3-46.3-8.5l-30.3-30.2c58.4-68.9,55-172.6-10-237.6
	C334.9,16.6,223.4,16.6,155,85c-68.4,68.4-68.4,179.9,0,248.3c33.2,33.2,77.3,51.4,124.2,51.4c40.5,0,79-13.7,110.1-38.8l31.9,31.9
	c-1.3,4-2,8.3-2,12.7c0,11.1,4.3,21.4,12.1,29.2l87.4,87.4c8.1,8.1,18.7,12.1,29.2,12.1s21.2-4,29.2-12.1
	C593.4,491.1,593.4,464.8,577.3,448.7L577.3,448.7z M178.8,309.6c-55.3-55.3-55.3-145.5,0-200.8c27.7-27.7,64.1-41.6,100.5-41.6
	s72.7,13.9,100.5,41.6c55.3,55.3,55.3,145.5,0,200.8c-26.8,26.8-62.5,41.6-100.5,41.6C241.3,351.1,205.6,336.4,178.8,309.6z"/>
</svg>
