<svg width="170" height="170" viewBox="0 0 170 170" fill="none" xmlns="http://www.w3.org/2000/svg">
<g clip-path="url(#clip0_50_64)">
<path d="M0 12.5926C21.1109 12.517 42.2218 12.3407 63.3636 12.5044C65.3418 12.5044 67.3045 14.6074 69.2827 15.7281C67.5827 16.8993 66.0836 18.7882 64.1673 19.1407C51.2473 21.5459 49.9182 22.2889 49.9027 33.1941C49.9027 64.4489 50.2891 95.7037 50.4436 126.971C50.4436 131.164 51.9891 134.149 57.8927 133.645C65.3418 133.016 68.7109 135.899 71.3227 141.44C80.2864 160.417 102.68 167.104 122.678 156.916L118.691 155.393C146.231 139.803 150.265 115.751 129.509 93.9911C125.305 89.5711 122.802 84.0556 119.525 79.0437L121.473 78.1748L132.492 91.9259L134.64 91.183L133.45 86.1459L145.072 80.5926C146.865 83.1111 148.163 87.1156 151.377 88.5637C153.448 89.5207 158.564 87.2415 161.345 85.4281C162.35 84.7607 160.542 81.2348 159.893 78.4645C160.947 78.4576 161.992 78.3043 162.984 78.0111C164.529 77.4319 166.615 76.6385 166.925 75.6311C167.234 74.6237 165.843 72.9867 164.637 72.143C162.335 70.4933 159.336 69.4607 157.157 67.723C154.23 65.2343 151.475 62.6152 148.905 59.8778C147.127 58.1274 145.582 56.2385 143.789 54.5133C140.327 51.2015 136.912 47.8519 133.187 44.7667C131.626 43.6902 129.78 42.923 127.794 42.5252C112.107 38.3822 94.9527 43.0415 84.6445 54.3496C74.9082 65.0282 72.2809 77.1044 74.7227 91.7244L81.7545 79.5726L83.1145 79.9126V101.71C68.6027 94.9356 60.2727 78.3511 63.6109 62.5978C66.5473 48.9852 80.92 37.6393 97.9509 35.4607C113.015 33.7032 128.355 34.336 143.125 37.3244C148.503 38.3319 151.006 40.4222 151.315 44.9556C151.639 49.3489 152.383 53.715 153.541 58.0141C155.488 65.4815 162.86 69.2593 170 73.037V76.8148C167.481 81.5496 165.364 86.4482 162.273 90.9689C160.315 93.6207 157.774 95.9557 154.777 97.857C151.42 99.8803 147.905 101.723 144.253 103.373C145.536 104.801 146.968 106.137 148.534 107.364C169.459 119.881 168.625 155.531 134.887 165.227C128.705 167.028 122.215 168.426 115.878 170.013H91.1818C88.23 169.446 85.3091 168.753 82.3418 168.338C63.7964 165.668 63.58 165.719 60.7055 150.771C59.5155 144.626 56.0691 142.095 48.5427 142.196C32.3618 142.422 16.1809 142.296 0 142.296V136C19.1018 133.696 19.1018 133.696 19.1018 117.539C19.1018 90.121 19.1018 62.7069 19.1018 35.297C19.0864 21.0422 18.2982 20.3622 0.772727 18.8889C0.515667 18.8701 0.25706 18.8701 0 18.8889L0 12.5926Z" fill="#A3925F"/>
<path d="M127.948 119.315L113.344 93.9282L111.134 94.4445L109.094 99.1037C99.96 87.657 93.6391 75.8326 104.627 62.2956C103.688 61.8492 102.706 61.466 101.691 61.1496C100.978 61.0735 100.256 61.0735 99.5427 61.1496C100.408 53.5059 105.632 48.8089 113.993 47.2978C113.993 51.4911 113.993 55.7978 113.993 60.117C113.993 60.923 114.194 62.0185 113.653 62.497C106.034 69.297 109.016 75.4045 114.024 82.4311C119.278 89.8985 122.539 98.3104 128.381 105.891L127.191 96.7111C144.732 109.442 140.08 142.044 113.931 149.839C130.467 140.206 136.51 128.432 132.245 111.86L127.948 119.315Z" fill="#A3925F"/>
<path d="M124.78 21.5208L132.26 10.4015L134.099 22.3519L136.278 22.9059L144.886 14.0911L146.741 14.6956C143.65 20.7778 140.559 26.8978 137.066 32.8541C136.649 33.5845 133.836 33.8741 132.322 33.6222C120.855 31.6956 109.449 31.1919 97.9354 33.5215C96.39 33.8363 93.2991 33.2696 92.7427 32.3882C89.2809 26.52 86.3445 20.463 83.2227 14.4689L85 13.8519L93.5309 22.8052L95.8491 22.5659L98.1982 10.0741C98.9249 11.8725 99.8401 13.6167 100.934 15.2874C102.572 17.2393 104.596 18.9771 106.466 20.8156C108.012 18.6371 110.175 16.5971 110.979 14.2548C112.416 10.1245 113.019 5.81779 115.615 1.49854L121.519 21.4074L124.78 21.5208Z" fill="#A3925F"/>
<path d="M71.6473 134.086C84.8146 132.336 101.845 138.254 105.075 121.493C114.889 126.001 118.073 132.676 113.776 139.941C113.05 141.201 110.206 142.145 108.29 142.196C99.5582 142.435 90.78 142.082 82.0173 142.372C75.5418 142.536 72.7909 139.979 71.6473 134.086Z" fill="#A3925F"/>
<path d="M119.464 61.7037L117.269 52.8889L126.542 52.3852L121.905 61.4393L119.464 61.7037Z" fill="#A3925F"/>
<path d="M90.4863 94.6082L93.3609 108.296C87.1636 105.01 86.3754 101.282 90.4863 94.6082Z" fill="#A3925F"/>
<path d="M139.091 61.5904L147.313 69.7755L132.569 65.1541L139.091 61.5904Z" fill="#A3925F"/>
<path d="M83.0064 15.1111C84.4659 15.1111 85.6491 14.147 85.6491 12.9578C85.6491 11.7685 84.4659 10.8044 83.0064 10.8044C81.5468 10.8044 80.3636 11.7685 80.3636 12.9578C80.3636 14.147 81.5468 15.1111 83.0064 15.1111Z" fill="#A3925F"/>
<path d="M97.8118 11.8622C99.2713 11.8622 100.455 10.8981 100.455 9.70888C100.455 8.51962 99.2713 7.55554 97.8118 7.55554C96.3523 7.55554 95.1691 8.51962 95.1691 9.70888C95.1691 10.8981 96.3523 11.8622 97.8118 11.8622Z" fill="#A3925F"/>
<path d="M115.461 4.30667C116.92 4.30667 118.104 3.34259 118.104 2.15333C118.104 0.96408 116.92 0 115.461 0C114.001 0 112.818 0.96408 112.818 2.15333C112.818 3.34259 114.001 4.30667 115.461 4.30667Z" fill="#A3925F"/>
<path d="M133.125 11.8622C134.585 11.8622 135.768 10.8981 135.768 9.70888C135.768 8.51962 134.585 7.55554 133.125 7.55554C131.666 7.55554 130.483 8.51962 130.483 9.70888C130.483 10.8981 131.666 11.8622 133.125 11.8622Z" fill="#A3925F"/>
<path d="M145.056 16.3704C146.516 16.3704 147.699 15.4063 147.699 14.2171C147.699 13.0278 146.516 12.0637 145.056 12.0637C143.597 12.0637 142.414 13.0278 142.414 14.2171C142.414 15.4063 143.597 16.3704 145.056 16.3704Z" fill="#A3925F"/>
<g clip-path="url(#clip1_50_64)">
<path d="M0 12.5926C21.1109 12.517 42.2218 12.3407 63.3636 12.5044C65.3418 12.5044 67.3045 14.6074 69.2827 15.7281C67.5827 16.8993 66.0836 18.7882 64.1673 19.1407C51.2473 21.5459 49.9182 22.2889 49.9027 33.1941C49.9027 64.4489 50.2891 95.7037 50.4436 126.971C50.4436 131.164 51.9891 134.149 57.8927 133.645C65.3418 133.016 68.7109 135.899 71.3227 141.44C80.2864 160.417 102.68 167.104 122.678 156.916L118.691 155.393C146.231 139.803 150.265 115.751 129.509 93.9911C125.305 89.5711 122.802 84.0556 119.525 79.0437L121.473 78.1748L132.492 91.9259L134.64 91.183L133.45 86.1459L145.072 80.5926C146.865 83.1111 148.163 87.1156 151.377 88.5637C153.448 89.5207 158.564 87.2415 161.345 85.4281C162.35 84.7607 160.542 81.2348 159.893 78.4645C160.947 78.4576 161.992 78.3043 162.984 78.0111C164.529 77.4319 166.615 76.6385 166.925 75.6311C167.234 74.6237 165.843 72.9867 164.637 72.143C162.335 70.4933 159.336 69.4607 157.157 67.723C154.23 65.2343 151.475 62.6152 148.905 59.8778C147.127 58.1274 145.582 56.2385 143.789 54.5133C140.327 51.2015 136.912 47.8519 133.187 44.7667C131.626 43.6902 129.78 42.923 127.794 42.5252C112.107 38.3822 94.9527 43.0415 84.6445 54.3496C74.9082 65.0282 72.2809 77.1044 74.7227 91.7244L81.7545 79.5726L83.1145 79.9126V101.71C68.6027 94.9356 60.2727 78.3511 63.6109 62.5978C66.5473 48.9852 80.92 37.6393 97.9509 35.4607C113.015 33.7032 128.355 34.336 143.125 37.3244C148.503 38.3319 151.006 40.4222 151.315 44.9556C151.639 49.3489 152.383 53.715 153.541 58.0141C155.488 65.4815 162.86 69.2593 170 73.037V76.8148C167.481 81.5496 165.364 86.4482 162.273 90.9689C160.315 93.6207 157.774 95.9557 154.777 97.857C151.42 99.8803 147.905 101.723 144.253 103.373C145.536 104.801 146.968 106.137 148.534 107.364C169.459 119.881 168.625 155.531 134.887 165.227C128.705 167.028 122.215 168.426 115.878 170.013H91.1818C88.23 169.446 85.3091 168.753 82.3418 168.338C63.7964 165.668 63.58 165.719 60.7055 150.771C59.5155 144.626 56.0691 142.095 48.5427 142.196C32.3618 142.422 16.1809 142.296 0 142.296V136C19.1018 133.696 19.1018 133.696 19.1018 117.539C19.1018 90.121 19.1018 62.7069 19.1018 35.297C19.0864 21.0422 18.2982 20.3622 0.772727 18.8889C0.515667 18.8701 0.25706 18.8701 0 18.8889L0 12.5926Z" fill="#A3925F"/>
<path d="M127.948 119.315L113.344 93.9282L111.134 94.4445L109.094 99.1037C99.96 87.657 93.6391 75.8326 104.627 62.2956C103.688 61.8492 102.706 61.466 101.691 61.1496C100.978 61.0735 100.256 61.0735 99.5427 61.1496C100.408 53.5059 105.632 48.8089 113.993 47.2978C113.993 51.4911 113.993 55.7978 113.993 60.117C113.993 60.923 114.194 62.0185 113.653 62.497C106.034 69.297 109.016 75.4045 114.024 82.4311C119.278 89.8985 122.539 98.3104 128.381 105.891L127.191 96.7111C144.732 109.442 140.08 142.044 113.931 149.839C130.467 140.206 136.51 128.432 132.245 111.86L127.948 119.315Z" fill="#A3925F"/>
<path d="M124.78 21.5208L132.26 10.4015L134.099 22.3519L136.278 22.9059L144.886 14.0911L146.741 14.6956C143.65 20.7778 140.559 26.8978 137.066 32.8541C136.649 33.5845 133.836 33.8741 132.322 33.6222C120.855 31.6956 109.449 31.1919 97.9354 33.5215C96.39 33.8363 93.2991 33.2696 92.7427 32.3882C89.2809 26.52 86.3445 20.463 83.2227 14.4689L85 13.8519L93.5309 22.8052L95.8491 22.5659L98.1982 10.0741C98.9249 11.8725 99.8401 13.6167 100.934 15.2874C102.572 17.2393 104.596 18.9771 106.466 20.8156C108.012 18.6371 110.175 16.5971 110.979 14.2548C112.416 10.1245 113.019 5.81779 115.615 1.49854L121.519 21.4074L124.78 21.5208Z" fill="#A3925F"/>
<path d="M71.6473 134.086C84.8146 132.336 101.845 138.254 105.075 121.493C114.889 126.001 118.073 132.676 113.776 139.941C113.05 141.201 110.206 142.145 108.29 142.196C99.5582 142.435 90.78 142.082 82.0173 142.372C75.5418 142.536 72.7909 139.979 71.6473 134.086Z" fill="#A3925F"/>
<path d="M119.464 61.7037L117.269 52.8889L126.542 52.3852L121.905 61.4393L119.464 61.7037Z" fill="#A3925F"/>
<path d="M90.4863 94.6082L93.3609 108.296C87.1636 105.01 86.3754 101.282 90.4863 94.6082Z" fill="#A3925F"/>
<path d="M139.091 61.5904L147.313 69.7755L132.569 65.1541L139.091 61.5904Z" fill="#A3925F"/>
<path d="M83.0064 15.1111C84.4659 15.1111 85.6491 14.147 85.6491 12.9578C85.6491 11.7685 84.4659 10.8044 83.0064 10.8044C81.5468 10.8044 80.3636 11.7685 80.3636 12.9578C80.3636 14.147 81.5468 15.1111 83.0064 15.1111Z" fill="#A3925F"/>
<path d="M97.8118 11.8622C99.2713 11.8622 100.455 10.8981 100.455 9.70888C100.455 8.51962 99.2713 7.55554 97.8118 7.55554C96.3523 7.55554 95.1691 8.51962 95.1691 9.70888C95.1691 10.8981 96.3523 11.8622 97.8118 11.8622Z" fill="#A3925F"/>
<path d="M115.461 4.30667C116.92 4.30667 118.104 3.34259 118.104 2.15333C118.104 0.96408 116.92 0 115.461 0C114.001 0 112.818 0.96408 112.818 2.15333C112.818 3.34259 114.001 4.30667 115.461 4.30667Z" fill="#A3925F"/>
<path d="M133.125 11.8622C134.585 11.8622 135.768 10.8981 135.768 9.70888C135.768 8.51962 134.585 7.55554 133.125 7.55554C131.666 7.55554 130.483 8.51962 130.483 9.70888C130.483 10.8981 131.666 11.8622 133.125 11.8622Z" fill="#A3925F"/>
<path d="M145.056 16.3704C146.516 16.3704 147.699 15.4063 147.699 14.2171C147.699 13.0278 146.516 12.0637 145.056 12.0637C143.597 12.0637 142.414 13.0278 142.414 14.2171C142.414 15.4063 143.597 16.3704 145.056 16.3704Z" fill="#A3925F"/>
</g>
</g>
<defs>
<clipPath id="clip0_50_64">
<rect width="170" height="170" fill="white"/>
</clipPath>
<clipPath id="clip1_50_64">
<rect width="170" height="170" fill="white"/>
</clipPath>
</defs>
</svg>
